<svg xmlns="http://www.w3.org/2000/svg" width="637.201" height="97.92" viewBox="0 0 637.201 97.92">
  <path fill-rule="evenodd" clip-rule="evenodd" fill="#4E8DF4" d="M1 .88V.52h15.48c11.092 21.094 23.116 39.95 34.56 60.84-2.622 4.99-4.534 8.793-7.56 12.96C29.34 49.467 15.277 24.763 1 .88z"/>
  <path fill-rule="evenodd" clip-rule="evenodd" fill="#F00" d="M17.92.52h15.12C38.42 10.75 46.347 25.1 53.2 36.88c1.46 2.51 4.605 5.604 5.04 9 .746 5.836-4.468 9.102-6.12 14.4C40.84 40.468 28.276 19.855 17.92.52z"/>
  <path fill-rule="evenodd" clip-rule="evenodd" fill="#767676" d="M151.48 21.76c-2.477 1.912-4.188 7.2-7.56 7.2-1.71 0-4.832-3.764-6.48-4.68-18.793-10.447-39.115 4.797-37.08 26.64 1.128 12.115 10.584 21.08 22.68 21.96 12.3.896 22.658-5.1 25.2-18.36-6.965-1.074-16.433.354-23.4-.72-1.276-1.89-.823-7.273-.36-9.72 10.803-.837 23.157-.122 34.56-.36 2.214 23.892-10.175 37.715-28.44 39.6-21.917 2.264-41.71-12.658-41.76-36-.043-19.962 14.726-35.673 34.2-36.72 13.2-.71 21.965 4.337 28.44 11.16zm145.8 0c-2.476 1.912-4.187 7.2-7.56 7.2-1.71 0-4.83-3.764-6.48-4.68-18.792-10.447-39.114 4.797-37.08 26.64 1.13 12.115 10.585 21.08 22.68 21.96 12.302.896 22.66-5.1 25.2-18.36-6.964-1.074-16.432.354-23.4-.72-1.275-1.89-.822-7.273-.36-9.72 10.804-.837 23.158-.122 34.56-.36 2.215 23.892-10.174 37.715-28.44 39.6-21.916 2.264-41.708-12.658-41.76-36-.042-19.96 14.726-35.673 34.2-36.72 13.2-.71 21.965 4.337 28.44 11.16zM172 12.04c19.544-.857 36.31-.05 46.08 9.72 8.98 8.98 13.028 28.47 5.76 42.84-7.892 15.604-27.303 19.726-52.92 16.92-.6-21.96-.6-46.438 0-68.4.202-.518.562-.88 1.08-1.08zm9.36 11.88v47.52c15.333.897 26.345-1.288 31.68-10.08 4.75-7.824 4.44-21.124 0-28.44-5.408-8.91-16.876-11.143-31.32-10.08-.42.06-.39.57-.36 1.08zM377.2 25c-1.655 2.185-5.522 2.157-7.56 3.96-1.467-12.16-28.228-11.867-24.84 2.88 1.18 5.14 8.002 7.277 13.68 9.36 5.4 1.98 11.574 4.373 15.12 7.56 4.85 4.356 8.204 13.802 4.32 22.32-5.73 12.57-27.86 14.618-38.16 4.32-2.924-2.924-4.33-6.197-6.12-10.8 1.935-1.906 5.062-2.62 7.92-3.6 1.833 4.28 4.045 9.43 9.36 11.88 9.258 4.267 23.813-2.036 19.08-14.04-5.17-13.117-34.445-7.694-34.2-29.16.236-20.617 34.822-23.997 41.4-4.68zm173.52-11.52h7.92V80.8h-8.28c.24-22.32-.48-45.6.36-67.32zm-50.04 7.2v14.04h21.24c.84-3.96.12-9.48.36-14.04h8.28v14.04h11.52v7.92h-11.16c.646 10.87-5.454 35.058 9.72 30.24.525 2.716 1.552 4.93 2.52 7.2-2.885 1.147-5.7 1.763-9.36 1.44-15.613-1.377-10.916-21.516-11.52-38.52-6.36-.84-14.278-.12-21.24-.36.838 10.56-5.744 35.105 9.36 30.24.627 2.733 1.862 4.857 2.52 7.56-3.277.56-5.195 1.287-8.64 1.08-16.548-1-11.57-21.484-12.24-38.88h-7.92v-7.92h7.56c.84-3.962.122-9.48.36-14.04h8.64zm-69.84 38.16c-11.402.837-24.356.122-36.36.36-.545 10.91 10.78 18.646 20.88 14.04 3.354-1.528 4.687-4.474 7.562-6.84 2.194 1.165 4.404 2.315 6.84 3.24-11.46 22.02-46.97 13.934-43.92-15.84 1-9.778 8.274-19.272 19.44-20.52 17.496-1.957 25.003 9.57 25.56 25.56zm-35.64-6.48h26.28c.192-15.41-26.2-14.413-26.28 0zm82.08 28.44H469v-6.48c-6.853 12.38-30.12 9.2-32.4-4.68-2.86-17.44 18.63-22.72 32.4-15.84 2.43-14.39-18.945-16.572-23.4-6.84-2.533-1.545-4.976-3.184-7.56-4.68 5.283-10.735 26.105-11.695 34.2-3.6 8.422 8.42 3.827 26.496 5.04 42.12zm-32.04-12.6c.94 5.48 9.182 8.22 15.48 5.4 4.71-2.107 7.778-6.732 8.28-12.24-6.29-6.34-25.737-4.693-23.76 6.84zm167.04-9.36c-11.402.837-24.356.122-36.36.36-.545 10.91 10.78 18.646 20.88 14.04 3.354-1.528 4.687-4.474 7.562-6.84 2.194 1.165 4.404 2.315 6.84 3.24-11.46 22.02-46.97 13.932-43.92-15.84 1-9.778 8.274-19.272 19.44-20.52 17.497-1.957 25.003 9.57 25.56 25.56zm-35.64-6.48h26.28c.192-15.41-26.2-14.413-26.28 0z"/>
  <path fill-rule="evenodd" clip-rule="evenodd" fill="#129E5A" d="M26.92 48.4c3.05 4.03 5.3 8.858 7.92 13.32-6.266 10.187-12.765 21.196-18 31.32H1.72c8.562-16.123 17.184-29.056 25.2-44.64z"/>
  <path fill-rule="evenodd" clip-rule="evenodd" fill="#FFC108" d="M35.2 63.16c2.873 2.964 4.914 8.063 7.56 12.24-2.607 6.772-7.103 11.4-9.36 17.64H18.28c5.64-10.754 11.095-19.488 16.92-29.88z"/>
</svg>
