<?xml version="1.0" encoding="utf-8"?>
<!-- Generator: Adobe Illustrator 13.0.2, SVG Export Plug-In . SVG Version: 6.00 Build 14948)  -->
<!DOCTYPE svg PUBLIC "-//W3C//DTD SVG 1.1//EN" "http://www.w3.org/Graphics/SVG/1.1/DTD/svg11.dtd">
<svg version="1.1" id="Layer_1" xmlns="http://www.w3.org/2000/svg" xmlns:xlink="http://www.w3.org/1999/xlink" x="0px" y="0px"
	 width="3246.023px" height="875.312px" viewBox="0 0 3246.023 875.312" enable-background="new 0 0 3246.023 875.312"
	 xml:space="preserve">
<path fill-rule="evenodd" clip-rule="evenodd" fill="#FFFFFF" d="M75,0c51.407,90.594,103.662,180.342,156,270
	c-12.264,21.736-23.434,44.566-38,64C128.683,223.314,64.415,112.588,0,2c0-0.666,0-1.332,0-2C25,0,50,0,75,0z"/>
<path fill-rule="evenodd" clip-rule="evenodd" fill="#FFFFFF" d="M78,0c24,0,48,0,72,0c26.129,46.148,57.362,100.529,86,150
	c9.012,15.568,25.224,35.395,26,53c1.233,27.984-21.309,42.18-30,64C180.635,178.031,128.842,89.494,78,0z"/>
<path fill-rule="evenodd" clip-rule="evenodd" fill="#FFFFFF" d="M811,74c-5.565,7.77-12.333,14.334-19,21
	c-6.173,6.174-12.39,14.703-22,17c-14.436-3.408-17.183-13.578-27-20c-35.888-23.469-87.674-24.598-122-11
	c-35.391,14.021-63.341,44.455-75,80c-29.158,88.895,29.008,175.959,112,182c78.205,5.693,120.878-33.008,134-97
	c-17.083-1.805-40.9-1-64-1c-18.768,0-53.19,4.811-61-3c-4.638-4.637-6.54-44.459,0-51c6.25-6.25,30.198-3,44-3
	c47.437,0,92.396,0,138,0c17.141,95.762-27.451,161.822-89,193c-70.387,35.654-163.958,21.797-219-29
	c-49.304-45.5-81.4-127.814-50-214c23.397-64.219,83.861-118.555,171-123C730.093,11.527,778.097,37.023,811,74z"/>
<path fill-rule="evenodd" clip-rule="evenodd" fill="#FFFFFF" d="M1581,77c-5.565,7.77-12.333,14.334-19,21
	c-6.173,6.174-12.39,14.703-22,17c-13.854-3.365-17.683-13.822-29-21c-52.095-33.031-122.785-18.646-159,15
	c-36.99,34.367-56.39,98.539-33,157c17.687,44.207,60.439,76.467,109,80c75.379,5.486,121.117-31.262,134-97
	c-19.097-1.824-40.388-1-64-1c-15.493,0-53.262,4.738-61-3c-5.131-5.131-5.817-45.182,0-51c6.169-6.168,30.161-3,44-3
	c44.625,0,95.902,0,138,0c16.717,97.451-28.413,163.729-90,194c-71.247,35.02-163.508,20.105-218-31
	c-48.6-45.578-82.347-126.598-50-213c23.549-62.902,81.869-119.262,171-124C1501.713,13.295,1547.733,41.596,1581,77z"/>
<path fill-rule="evenodd" clip-rule="evenodd" fill="#FFFFFF" d="M2004,97c-14.064,5.936-28.918,11.082-42,18
	c-8.73-26.482-33.992-46.889-67-47c-30.797-0.104-73.214,20.146-63,62c7.865,32.225,58.345,44.621,89,56
	c44.037,16.348,89.361,40.277,94,96c5.73,68.824-42.379,110.369-106,115c-73.75,5.369-117.716-34.611-138-97
	c14.367-5.965,29.348-11.32,43-18c11.393,33.266,34.982,67.502,77,71c40.889,3.406,93.287-25.514,74-78
	c-2.314-6.301-6.563-13.318-11-18c-46.9-49.477-181.002-34.326-170-148c4.375-45.201,46.02-81.102,99-85
	C1947.931,19.225,1986.082,51.885,2004,97z"/>
<path fill-rule="evenodd" clip-rule="evenodd" fill="#FFFFFF" d="M916,26c-0.184-0.85,0.39-0.943,1-1
	c89.538-1.754,162.782-3.977,214,28c47.444,29.621,83.707,82.229,82,162c-2.282,106.623-70.901,177.516-182,181
	c-18.332,0.576-41.275,0-61,0c-11.114,0-50.336,4.664-58-3c-4.742-4.742-3-28.932-3-44c0-92.594,0-183.287,0-279
	C909,56.09,905.327,29.744,916,26z M969,86c0.004,83.34-0.006,171.992,0,252c78.196,5.41,134.772-5.834,163-49
	c24.349-37.232,27.367-100.816,8-142c-26.068-55.432-85.328-70.207-170-64C968.835,83.168,968.914,84.582,969,86z"/>
<path fill-rule="evenodd" clip-rule="evenodd" fill="#FFFFFF" d="M2921,32c15,0,30,0,45,0c0,119,0,238,0,357
	c-15.332,0-30.666,0-46,0c0-117.998,0-236,0-354C2919.914,33.582,2919.835,32.168,2921,32z"/>
<path fill-rule="evenodd" clip-rule="evenodd" fill="#FFFFFF" d="M2657,70c0,25,0,50,0,75c37.334,0,74.666,0,112,0
	c2.332-23,0.334-50.332,1-75c15.334,0,30.668,0,46,0c0,25,0,50,0,75c20,0,40,0,60,0c0,14,0,28,0,42c-19.666,0-39.332,0-59,0
	c4.176,33.932-10.479,115.211,3,146c7.398,16.898,27.938,20.686,48,13c4.154,14.18,9.697,26.971,14,41
	c-53.799,17.697-107.137-1.258-112-57c-3.852-44.164,2.863-94.447,0-143c-37.666,0-75.332,0-113,0c2.631,33.139-3.418,94.33,0,131
	c2.412,25.881,23.199,39.439,51,28c4.971,13.363,10.334,26.334,14,41c-54.047,17.371-106.055-1.404-111-54
	c-3.951-42.041,2.959-100.193,0-146c-14.332,0-28.666,0-43,0c0-14,0-28,0-42c14,0,28,0,42,0c2.998-22.668-0.998-52.33,2-75
	C2627,70,2642,70,2657,70z"/>
<path fill-rule="evenodd" clip-rule="evenodd" fill="#FFFFFF" d="M2287,276c-62.73-0.646-133.246,1.307-191-1
	c-3.859,61.51,68.838,101.357,119,68c11.881-7.898,20.309-18.324,28-32c13.609,6.725,27.623,13.045,41,20
	c-22.857,43.389-64.531,69.92-123,66c-64.223-4.305-108.271-54.906-112-118c-4.328-73.244,35.607-135.805,106-142
	C2247.423,128.867,2289.732,189.217,2287,276z M2160,179c-33.014,3.41-55.506,28.912-59,59c38.932-2.365,100.668-0.271,138-1
	C2234.474,198.016,2203.515,174.508,2160,179z"/>
<path fill-rule="evenodd" clip-rule="evenodd" fill="#FFFFFF" d="M2532,389c-14.666,0-29.332,0-44,0c0-11.332,0-22.666,0-34
	c-18.039,20.934-34.801,38.859-67,42c-60.145,5.869-111.268-32.834-105-94c7.389-72.105,107.432-88.748,172-58
	c4.621-44.691-33.338-70.959-72-67c-24.27,2.486-39.076,16.758-53,32c-12.48-8.852-26.08-16.586-39-25
	c18.285-26.443,44.439-44.922,84-48c68.67-5.342,119.199,25.658,124,88C2535.734,273.488,2529.226,331.166,2532,389z M2365,327
	c6.602,19.465,29.666,31.18,56,29c37.539-3.107,64.266-32.83,67-71C2455.318,251.66,2344.318,266.027,2365,327z"/>
<path fill-rule="evenodd" clip-rule="evenodd" fill="#FFFFFF" d="M3246,275c-61.674,1.662-130.326,1.67-192,0
	c1.877,47.668,34.039,82.463,83,80c32.861-1.652,50.146-20.996,64-44c13.609,6.725,27.623,13.045,41,20
	c-21.371,36.797-50.07,62.439-99,66c-85.971,6.258-141.875-56.348-136-144c4.482-66.869,53.063-121.797,134-116
	C3211.544,142.055,3247.062,196.854,3246,275z M3118,179c-33.082,3.416-53.506,28.17-60,58c42.492,0.047,93.217-0.033,139,0
	C3192.537,198.018,3161.49,174.512,3118,179z"/>
<path fill-rule="evenodd" clip-rule="evenodd" fill="#FFFFFF" d="M2239,756.052c-37.332,0.729-99.068-1.365-138,1
	c3.494-30.088,25.986-55.59,59-59C2203.515,693.56,2234.474,717.067,2239,756.052z"/>
<path fill-rule="evenodd" clip-rule="evenodd" fill="#FFFFFF" d="M3197,756.052c-45.783-0.033-96.508,0.047-139,0
	c6.494-29.83,26.918-54.584,60-58C3161.49,693.563,3192.537,717.069,3197,756.052z"/>
<path fill-rule="evenodd" clip-rule="evenodd" fill="#FFFFFF" d="M0,416c0-3,0-6,0-9c39.093-65.906,76.439-133.561,116-199
	c13.532,20.801,25.563,43.104,38,65c-29.352,46.648-54.291,97.709-85,143C46,416,23,416,0,416z"/>
<path fill-rule="evenodd" clip-rule="evenodd" fill="#FFFFFF" d="M2488,804.052c-2.734,38.17-29.461,67.893-67,71
	c-26.334,2.18-49.398-9.535-56-29C2344.318,785.079,2455.318,770.712,2488,804.052z"/>
<path fill-rule="evenodd" clip-rule="evenodd" fill="#FFFFFF" d="M155,274c13.753,18.914,23.502,41.832,37,61
	c-16.112,27.223-31.262,55.404-48,82c-23,0-46,0-69,0c-0.592-6.293,5.074-10.916,8-16C106.402,360.34,131.822,315.453,155,274z"/>
</svg>
