<?xml version="1.0" encoding="utf-8"?>
<!-- Generator: Adobe Illustrator 13.0.2, SVG Export Plug-In . SVG Version: 6.00 Build 14948)  -->
<!DOCTYPE svg PUBLIC "-//W3C//DTD SVG 1.1//EN" "http://www.w3.org/Graphics/SVG/1.1/DTD/svg11.dtd">
<svg version="1.1" id="Layer_1" xmlns="http://www.w3.org/2000/svg" xmlns:xlink="http://www.w3.org/1999/xlink" x="0px" y="0px"
	 width="6763.343px" height="869.002px" viewBox="0 0 6763.343 869.002" enable-background="new 0 0 6763.343 869.002"
	 xml:space="preserve">
<path fill-rule="evenodd" clip-rule="evenodd" fill="#4E8DF5" d="M156,0c1.594,5.605,5.322,11.42,9,18c0.84,1.504,2.989,1.531,4,3
	c1.892,2.748,1.883,8.09,4,12c5.076,9.375,13.615,18.615,19,28c1.883,3.283,1.986,7.834,4,11c9.925,15.607,21.347,36.406,31,54
	c1.689,3.08,3.402,5.646,6,10c1.052,1.764,4.17,2.611,5,4c2.611,4.371,4.417,10.314,7,15c4.786,8.688,9.322,17.484,15,27
	c4.394,7.365,8.136,13.996,13,23c8.119,15.031,18.972,28.336,27,43c3.677,6.717,5.787,14.365,10,21c8.175,12.875,14.826,26.77,23,39
	c2.825,4.227,5.321,10.215,9,16c4.913,7.727,12.62,19.047,18,28c5.004,8.328,7.953,18.064,13,26c10.213,16.061,20.772,36.18,31,54
	c1.976,3.443,4.351,7.506,6,10c1.132,1.713,4.024,2.311,5,4c6.538,11.322,10.896,24.016,18,35c3.569,5.52,5.979,10.494,9,16
	c1.875,3.418,5.08,8.596,8,14c1.708,3.162,4.015,6.861,6,10c9.082,14.359,16.457,26.859,25,42c-24.63,46.84-51.474,90.217-76,133
	c-6.875-4.125-9.44-12.559-13-20c-14.106-22.227-27.658-45.008-40-69c-1.572-0.76-1.494-3.172-4-3
	c-6.675-20.658-21.358-33.309-29-53c-1.572-0.76-1.494-3.172-4-3c-33.224-64.775-72.86-123.141-107-187
	c-23.309-38.689-46.482-77.518-68-118c-1.554-1.445-2.678-3.32-5-4c-6.722-20.18-21.376-36.42-31-54c-2.648-4.838-2.05-11.936-8-14
	C65.685,113.574,31.304,57.414,0,4c0-1.332,0-2.666,0-4C52,0,104,0,156,0z"/>
<path fill-rule="evenodd" clip-rule="evenodd" fill="#DD4F43" d="M163,0c50,0,100,0,150,0c49.702,92.465,104.57,179.869,154,270
	c19.143,30.678,39.56,66.98,59,101c9.934,17.385,21.208,35.219,20,60c-1.127,23.137-10.195,39.875-23,57
	c-12.329,23.338-24.895,46.439-39,68c-53.028-91.52-108.009-182.996-161-276C269.868,186.75,215.092,94.055,163,0z"/>
<path fill-rule="evenodd" clip-rule="evenodd" fill="#767676" d="M1691,161c-18.244,21.518-39.392,40.393-61,62
	c-8.262,8.262-11.89,15.922-24,17c-7.824,0.697-12.066-0.211-18-6c-34.623-33.773-75.298-60.227-133-72
	c-71.783-14.645-144.472,1.629-193,29c-92.859,52.377-164.185,168.004-131,317c14.024,62.967,45.31,112.119,87,148
	c41.14,35.408,96.053,63.252,169,65c152.159,3.646,240.216-74.992,264-204c-82.668-2.332-169.666-0.334-254-1
	c-3.916-4.75-8.249-9.084-13-13c0-30.666,0-61.332,0-92c4.751-3.914,9.084-8.248,13-13c124,0,248.001,0,372,0
	c35.666,203.158-59.639,338.543-187,402c-69.564,34.66-163.138,49.547-255,35.002c-84.753-13.42-145.549-48.734-202-100.002
	c-52.642-47.807-94.508-110.705-115-188c-22.506-84.891-12.646-189.467,15-261c40.292-104.254,123.205-184.566,228-225
	c36.85-14.217,80.04-22.299,126-25c71.422-4.195,132.291,11.455,184,33C1615.23,90.764,1657.838,121.32,1691,161z"/>
<path fill-rule="evenodd" clip-rule="evenodd" fill="#767676" d="M3295,162c-18.672,20.328-37.765,39.766-59,61
	c-9.757,9.758-18.361,20.139-35,17c-9.177-1.73-22.158-20.455-30-27c-32.465-27.092-68.707-44.365-121-53
	c-72.11-11.906-140.792,4.266-190,34c-47.786,28.877-83.684,68.631-108,124c-22.923,52.197-31.84,129.277-15,199
	c14.57,60.326,48.648,108.074,90,143c40.604,34.295,97.378,61,171,61c146.133,0,233.527-74.568,258-204
	c-83.001-2.332-170.332-0.334-255-1c-3.916-4.75-8.249-9.084-13-13c4.847-22.695-6.294-66.051,0-89c2.079-7.58,11.415-10.805,15-16
	c123.668,0,247.331,0,371,0c35.322,198.018-58.797,337.109-185,402c-68.811,35.383-166.089,49.359-256,35.002
	c-83.291-13.301-150.128-47.248-204-99.002c-51.3-49.281-94.307-110.99-114-190c-20.75-83.248-16.919-182.105,13-258
	c40.813-103.529,122.596-185.354,229-226c38.21-14.596,79.348-23.467,127-26c71.583-3.805,131.688,11.693,184,33
	C3220.081,90.215,3263.08,121.613,3295,162z"/>
<path fill-rule="evenodd" clip-rule="evenodd" fill="#767676" d="M4176,200c-28.256,14.41-58.861,26.473-90,38
	c-18.791-54.898-59.176-89.91-128-95c-57.371-4.242-112.84,21.787-134,64c-20.797,41.488-1.531,91.436,27,113
	c36.088,27.277,89.002,43.742,136,60c92.229,31.906,186.207,78.197,208,184c11.488,55.777,0.439,118.564-27,160
	c-25.848,39.035-63.697,67.262-111,85c-44.178,16.568-117.25,23.734-171,11c-102.523-24.285-164.955-94.791-196-195
	c30.957-12.043,60.592-25.408,92-37c20.926,71.77,69.275,131.738,144,145c94.059,16.693,182.072-37.738,175-131
	c-1.275-16.814-9.287-36.75-17-49c-32.736-51.994-105.354-70.902-174-96c-93.227-34.082-195.01-80.744-193-212
	c1.23-80.377,50.654-135.529,105-165c14.861-8.057,30.082-14.986,47-20c74.199-21.988,168.348-3.779,219,30
	C4128.684,117.133,4159.651,150.875,4176,200z"/>
<path fill-rule="evenodd" clip-rule="evenodd" fill="#767676" d="M1908,54c-0.184-0.85,0.39-0.943,1-1
	c88.258,1.627,173.913-2.633,252,1c156.376,7.275,259.473,78.607,319,186c29.647,53.488,47.82,123.133,47,201
	c-1.683,159.648-68.827,264.059-173,328c-51.018,31.314-118.708,53.453-197,55.002c-78.734,1.557-164.302-0.314-251-1
	c-3.582-4.42-7.582-8.42-12-12.002c0-221.402,0-466.416,0-696c0-16.379-2.901-35.422,0-46C1895.703,62.795,1904.264,58.609,1908,54z
	 M2018,176c0,176,0,352,0,528c58.476-1.527,111.241,2.955,158-2c141.514-14.992,223.951-105.592,225-262
	c1.038-154.748-83.562-249.797-221-265c-47.697-5.275-101.867-0.215-161-2C2017.835,173.168,2017.914,174.582,2018,176z"/>
<path fill-rule="evenodd" clip-rule="evenodd" fill="#767676" d="M6086,67c31.008,0.66,64.658-1.324,94,1c0,247.338,0,494.658,0,742
	c-32,0-64,0-96,0c0-246.668,0-493.328,0-740C6083.956,68.291,6084.745,67.41,6086,67z"/>
<path fill-rule="evenodd" clip-rule="evenodd" fill="#767676" d="M5441,146c31.666,0,63.334,0,95,0c0,51.668,0,103.334,0,155
	c76.336,2.332,156.998,0.336,235,1c2.33-50.002,0.336-104.33,1-156c32,0,64,0,96,0c0,51.668,0,103.334,0,155
	c39.682,2.318,83.656,0.346,125,1c0,28.668,0,57.334,0,86c-39.338,2.328-82.996,0.338-124,1c-1.809,47.256-1,102.469-1,160
	c0.002,50.525-7.26,117.559,10,150c14.867,27.945,60.508,38.643,97,21c10.172,28.494,20.99,56.344,30,86
	c-50.744,18.553-124.547,15.225-162-5c-40.588-21.914-67.436-61.186-71-120c-5.65-93.244,4.221-193.109,0-291
	c-76.334-2.332-156.998-0.334-235-1c1.566,79.205-5.459,186.764-1,268c3.061,55.73,45.445,89.545,107,63
	c10.111,27.889,19.74,56.26,30,84c-28.072,11.924-64.514,16.715-105,14c-79.266-5.314-128-64.617-128-150c0-85.297,0-186.361,0-278
	c-27.668-2.332-59.666-0.334-89-1c0-29,0-58,0-87c25.4-0.045,59.285,0.035,88,0c2.33-49.002,0.336-102.33,1-153
	C5439.915,147.582,5439.834,146.168,5441,146z"/>
<path fill-rule="evenodd" clip-rule="evenodd" fill="#767676" d="M4767,573c-131,2.334-266.334,0.334-399,1
	c1.506,93.061,68.803,171.959,175,165c66.326-4.346,103.814-45.299,131-91c28.801,13.199,56.385,27.615,85,41
	c-40.564,76.576-105.072,129.063-213,137.002c-108.596,7.986-187.447-41.113-234-113.002c-44.988-69.473-58.443-192.16-18-281
	c35.332-77.613,101.99-139.828,206-147c94.08-6.486,162.48,27.043,204,76C4747.069,411.783,4771.577,483.107,4767,573z M4518,372
	c-82.477,0.152-125.98,55.986-143,122c94.668,2.332,193.666,0.334,290,1C4656.975,415.51,4600.743,371.85,4518,372z"/>
<path fill-rule="evenodd" clip-rule="evenodd" fill="#767676" d="M5276,810c-30.334,0-60.666,0-91,0c-0.654-23.012,1.316-48.65-1-70
	c-8.594,4.354-12.258,13.221-18,20c-37.633,44.434-102.801,81.418-192,63.002c-85.084-17.566-157.535-85.648-148-189.002
	c7.021-76.119,61.676-121.707,129-142c70.178-21.152,169.199-15.156,229,18c14.578-108.729-105.092-168.555-196-126
	c-25.754,12.057-44.242,30.375-61,53c-30.012-15.654-56.217-35.115-85-52c39.365-55.584,95.764-94.416,183-100
	c86.643-5.545,155.539,18.801,198,63c27.49,28.617,49.156,72.361,53,123c4.104,54.063,0.002,111.865,0,170
	C5276,696.662,5276,753.092,5276,810z M5050,558c-59.572,3.123-113.99,30.406-124,79c-13.176,63.971,45.75,100.492,92,104
	c56.324,4.273,94.41-18.941,123-47c25.758-25.277,41.961-57.336,44-100C5154.463,566.611,5105.709,555.08,5050,558z"/>
<path fill-rule="evenodd" clip-rule="evenodd" fill="#767676" d="M6763,573c-131,2.334-266.334,0.334-399,1
	c2.787,89.887,60.961,159.098,149,165c79.533,5.332,128.166-38.855,157-91c29.039,13.629,57.959,27.375,86,42
	c-44.559,77.994-107.961,128.201-214,136.002c-108.049,7.947-187.916-41.219-234-113.002c-45.111-70.268-57.742-191.625-18-281
	c34.416-77.395,103.504-139.932,206-147c94.324-6.504,161.463,27.344,204,75C6744.329,409.662,6766.411,481.766,6763,573z M6514,372
	c-82.402,0.152-126.875,56.451-142,122c94.066,1.012,197.553,2.975,289-1C6652.854,416.141,6596.989,371.85,6514,372z"/>
<path fill-rule="evenodd" clip-rule="evenodd" fill="#139F5B" d="M0,866.002c0-6,0-12,0-18C79.342,712.479,160.098,570.244,241,433
	c7.978,9.09,14.774,20.041,21,31c6.31,11.105,12.485,22.762,19,34c13.104,22.604,27.654,44.787,38,67c1.994,4.281-4.056,11.807-9,20
	c-4.346,7.201-8.279,14.127-11,19c-21.656,38.787-44.74,76.697-65,112c-30.178,52.584-58.804,103.996-87,150.002
	C98,866.002,49,866.002,0,866.002z"/>
<path fill-rule="evenodd" clip-rule="evenodd" fill="#FFC109" d="M323,571c1.615-0.281,1.722,0.945,3,1
	c24.652,42.682,49.057,85.609,74,128c-34.637,54.697-65.794,112.871-99,169.002c-47.012-1.672-100.987-1.66-148,0
	c1.965-10.102,13.497-19.121,16-32c3.236,1.234,0.764-3.236,4-2c6.581-19.754,20.793-31.875,27-52.002c3.236,1.236,0.764-3.234,4-2
	c21.856-44.143,49.386-82.613,71-127c3.236,1.236,0.764-3.234,4-2c6.393-19.939,20.794-31.873,27-52
	C313.707,592.373,318.634,581.967,323,571z"/>
</svg>
