<?xml version="1.0" encoding="utf-8"?>
<!-- Generator: Adobe Illustrator 13.0.2, SVG Export Plug-In . SVG Version: 6.00 Build 14948)  -->
<!DOCTYPE svg PUBLIC "-//W3C//DTD SVG 1.1//EN" "http://www.w3.org/Graphics/SVG/1.1/DTD/svg11.dtd">
<svg version="1.1" id="Layer_1" xmlns="http://www.w3.org/2000/svg" xmlns:xlink="http://www.w3.org/1999/xlink" x="0px" y="0px"
	 width="1465.027px" height="188.167px" viewBox="0 0 1465.027 188.167" enable-background="new 0 0 1465.027 188.167"
	 xml:space="preserve">
<g>
	<path fill-rule="evenodd" clip-rule="evenodd" fill="#4E8DF4" d="M0,1.167c7.674-2.326,19.661-0.34,29-1
		c26.084,39.914,49.238,82.762,73,125c-5.466,7.867-9.801,16.865-15,25C57.116,101.384,29.643,50.19,0,1.167z"/>
	<path fill-rule="evenodd" clip-rule="evenodd" fill="#DC4D41" d="M34,1.167c7.674-2.326,19.661-0.34,29-1
		c12.751,17.965,28.436,46.869,42,70c4.503,7.678,12.106,18.256,12,25c-0.155,9.826-9.611,16.721-13,26
		C80.044,81.788,57.917,40.583,34,1.167z"/>
	<path fill-rule="evenodd" clip-rule="evenodd" fill="#767676" d="M369,33.167c-5.894,4.813-10.39,17.662-18,18
		c-6.774,0.299-12.537-9.672-17-12c-41.25-21.527-82.993,8.18-87,44c-4.835,43.23,20.865,71.541,58,72
		c30.234,0.373,48.141-14.17,55-43c-16.111-3.557-41.516,2.182-56-3c-3.152-4.076-3.152-18.926,0-23c25.346-2.322,54.991-0.344,82-1
		c19.83,89.605-94.774,125.408-146,67c-45.296-51.646-12.591-137.664,53-145C329.31,3.104,351.725,16.005,369,33.167z"/>
	<path fill-rule="evenodd" clip-rule="evenodd" fill="#767676" d="M715,33.167c-5.894,4.813-10.39,17.662-18,18
		c-6.397,0.283-12.533-9.945-19-13c-5.238-2.475-11.579-4.314-17-5c-71.479-9.043-87.461,83.395-42,113
		c30.998,20.186,84.106,5.168,87-34c-16.021-2.979-38.973,0.973-55-2c-4.111-2.439-4.41-18.076-1-24c25.346-2.322,54.991-0.344,82-1
		c9.951,60.758-32.104,99.123-85,96c-49.958-2.949-85.763-44.406-82-94c3.026-39.891,30.763-75.164,74-80
		C675.311,3.104,697.675,16.054,715,33.167z"/>
	<path fill-rule="evenodd" clip-rule="evenodd" fill="#767676" d="M413,176.167c-1.664-52.004-1.669-110.998,0-163
		c0.56-1.441,1.56-2.441,3-3c34.848,0.492,66.376-2.672,89,8c41.563,19.605,57.83,81.275,32,123
		C515.751,175.491,472.452,181.972,413,176.167z M439,39.167c0,37.332,0,74.666,0,112c38.899,2.895,65.74-4.057,77-28
		c16.029-34.086,0.513-76.873-33-85c-12.146-2.947-26.814-1.477-43-2C438.835,36.335,438.914,37.747,439,39.167z"/>
	<path fill-rule="evenodd" clip-rule="evenodd" fill="#767676" d="M905,41.167c-3.33,5.336-11.842,5.49-17,9
		c-6.686-4.221-5.846-10.959-14-16c-18.822-11.637-50.961,0.043-46,23c2.84,13.139,22.297,19.092,36,24
		c14.33,5.131,30.816,12.297,38,22c25.877,34.943-4.43,77.076-48,75c-28.736-1.369-44.367-18.432-54-43
		c4.813-4.521,13.475-5.193,19-9c6.52,13.875,16.52,30.279,36,32c16.307,1.439,36.408-8.77,34-30c-3.482-30.717-62.725-28.102-78-54
		c-16.309-27.652,5.869-60.43,36-64C874.355,6.925,895.445,18.784,905,41.167z"/>
	<path fill-rule="evenodd" clip-rule="evenodd" fill="#767676" d="M1338,13.167c0,53.666,0,107.334,0,161c-7,0-14,0-21,0
		c0.715-44.477-1.365-108.561,1-158C1316.044,10.522,1332.039,14.22,1338,13.167z"/>
	<path fill-rule="evenodd" clip-rule="evenodd" fill="#767676" d="M1199,30.167c2.613,9.48-0.219,27.781,1,33
		c14.336,2.33,32.998,0.334,49,1c2.328-9.34,0.338-22.996,1-34c7,0,14,0,21,0c0,11.332,0,22.666,0,34c9,0,18,0,27,0
		c0,6.332,0,12.666,0,19c-8.666,0-17.332,0-26,0c2.256,26.998-14.844,81.719,23,72c1.229,6.439,3.648,11.686,6,17
		c-15.506,7.711-34.865,3.742-43-5c-15.926-17.119-4.42-55.283-8-84c-16.666,0-33.332,0-50,0c3.137,23.863-7.506,61.506,8,73
		c5.779,0.445,10.248-0.42,15-1c1.436,6.564,4.361,11.639,6,18c-7.768,2.303-13.803,3.99-23,3c-36.645-3.945-27.027-51.748-28-93
		c-6.332,0-12.666,0-19,0c0-6.334,0-12.668,0-19c6.334,0,12.668,0,19,0c0.264-7.395-0.188-22.383,0-33
		C1183.16,28.991,1192.216,30.718,1199,30.167z"/>
	<path fill-rule="evenodd" clip-rule="evenodd" fill="#767676" d="M1033,123.167c-28.666,0-57.332,0-86,0
		c-1.236,39.275,51.787,46.852,67,16c4.82,3.514,10.748,5.92,17,8c-10.896,35.027-68.318,39.463-92,13
		c-27.879-31.154-13.266-96.846,37-100C1011.296,57.95,1033.919,81.481,1033,123.167z M948,106.167c21,0,42,0,63,0
		C1008.572,70.356,951.154,72.405,948,106.167z"/>
	<path fill-rule="evenodd" clip-rule="evenodd" fill="#767676" d="M1143,174.167c-6.666,0-13.332,0-20,0c0-4.668,0-9.334,0-14
		c-8.082,7.063-16.928,17.213-33,18c-25.803,1.262-43-15.467-45-33c-4.564-40.02,44.947-51.701,78-36
		c3.941-33.307-43.678-37.678-56-16c-6.885-2.449-11.115-7.553-18-10c20.617-35.959,89.563-28.631,94,19
		C1144.9,122.567,1141.617,147.669,1143,174.167z M1067,145.167c5.537,26.539,60.754,11.898,56-18
		C1108.246,113.794,1060.921,116.034,1067,145.167z"/>
	<path fill-rule="evenodd" clip-rule="evenodd" fill="#767676" d="M1465,123.167c-28.666,0-57.332,0-86,0
		c-1.236,39.275,51.787,46.852,67,16c4.82,3.514,10.748,5.92,17,8c-10.896,35.027-68.318,39.463-92,13
		c-27.879-31.154-13.264-96.846,37-100C1443.296,57.95,1465.919,81.481,1465,123.167z M1380,106.167c21,0,42,0,63,0
		C1440.572,70.356,1383.154,72.405,1380,106.167z"/>
	<path fill-rule="evenodd" clip-rule="evenodd" fill="#129E5A" d="M52,98.167c6.736,7.598,11.37,17.297,16,27
		c-12.062,20.938-24.753,41.246-36,63c-10.333,0-20.667,0-31,0C17.512,157.679,35.859,129.026,52,98.167z"/>
	<path fill-rule="evenodd" clip-rule="evenodd" fill="#FFC108" d="M69,128.167c7.075,6.592,10.409,16.924,16,25
		c-6.147,12.186-13.176,23.49-20,35c-10,0-20,0-30,0C45.895,167.728,57.914,148.415,69,128.167z"/>
</g>
</svg>
